<?xml version="1.0" encoding="utf-8"?>
<!-- Generator: Adobe Illustrator 26.3.1, SVG Export Plug-In . SVG Version: 6.00 Build 0)  -->
<svg version="1.1" id="레이어_1" xmlns="http://www.w3.org/2000/svg" xmlns:xlink="http://www.w3.org/1999/xlink" x="0px"
	 y="0px" viewBox="0 0 60 60" enable-background="new 0 0 60 60" xml:space="preserve">
<path fill="#040000" d="M51.79,21.69c-0.16-0.04-0.33-0.08-0.5-0.11C49.03,12.36,40.34,5.47,30,5.47c-10.34,0-19.02,6.89-21.3,16.12
	c-0.17,0.03-0.33,0.07-0.5,0.11c-4.27,1.08-6.73,4.79-6.73,10.17c0,6.37,3.6,10.48,9.18,10.48c0.01,0,0.02,0,0.03,0h1.8
	c1.24,0,2.25-0.99,2.25-2.2V23.6c0-1.22-1.01-2.21-2.25-2.21h-1.23c2.29-7.78,9.82-13.5,18.73-13.5c8.91,0,16.44,5.72,18.73,13.5
	H47.5c-1.24,0-2.25,0.99-2.25,2.21v16.55c0,1.21,1.01,2.2,2.25,2.2h1.8c0.01,0,0.02,0,0.03,0c0.04,0,0.07,0,0.11,0v5.93
	c0,0.55-0.49,0.99-1.1,0.99h-6.38v-0.66c0-1.2-1-2.18-2.23-2.18h-8.27c-1.23,0-2.23,0.98-2.23,2.18v3.75c0,1.2,1,2.18,2.23,2.18
	h8.27c1.23,0,2.23-0.98,2.23-2.18v-0.66h6.38c1.94,0,3.53-1.53,3.53-3.42v-6.24c4.11-1.07,6.64-4.83,6.64-10.16
	C58.52,26.48,56.07,22.77,51.79,21.69z M10.74,23.82h1.58v16.11h-1.59c-0.06,0-0.11,0-0.15,0C6.4,39.89,3.9,36.88,3.9,31.87
	c0-3.99,1.53-6.68,4.33-7.65c0.18-0.06,0.37-0.12,0.56-0.17c0.58-0.15,1.18-0.22,1.79-0.23C10.63,23.82,10.68,23.82,10.74,23.82
	C10.74,23.82,10.74,23.82,10.74,23.82z M39.54,52.11h-7.87v-3.26h7.87v0.42v2.43V52.11z M51.88,39.5c-0.73,0.27-1.54,0.42-2.43,0.43
	c-0.01,0-0.02,0-0.03,0c-0.05,0-0.1,0-0.16,0h-1.58V23.82h1.59c0,0,0,0,0,0c0.06,0,0.1,0,0.15,0c0.6,0.01,1.2,0.08,1.78,0.23
	c0.19,0.05,0.38,0.11,0.56,0.17c2.8,0.97,4.33,3.66,4.33,7.65C56.1,35.8,54.56,38.5,51.88,39.5z"/>
</svg>
