<?xml version="1.0" encoding="utf-8"?>
<!-- Generator: Adobe Illustrator 26.3.1, SVG Export Plug-In . SVG Version: 6.00 Build 0)  -->
<svg version="1.1" id="레이어_2" xmlns="http://www.w3.org/2000/svg" xmlns:xlink="http://www.w3.org/1999/xlink" x="0px"
	 y="0px" viewBox="0 0 198.43 184.25" enable-background="new 0 0 198.43 184.25" xml:space="preserve">
<path fill="#333333" d="M171.29,64.55c-0.54-0.14-1.09-0.25-1.64-0.36c-7.49-30.44-36.13-53.17-70.25-53.17
	c-34.12,0-62.76,22.74-70.25,53.17c-0.55,0.11-1.1,0.22-1.64,0.36C13.41,68.11,5.32,80.34,5.32,98.11c0,21,11.89,34.57,30.28,34.57
	c0.04,0,0.08,0,0.11,0h5.95c4.1,0,7.43-3.26,7.43-7.27V70.82c0-4.01-3.33-7.27-7.43-7.27h-4.06C45.17,37.89,70,19.02,99.4,19.02
	c29.4,0,54.23,18.88,61.8,44.53h-4.06c-4.1,0-7.43,3.26-7.43,7.27v54.59c0,4.01,3.33,7.27,7.43,7.27h5.95c0.04,0,0.08,0,0.11,0
	c0.12,0,0.24-0.01,0.36-0.01v19.57c0,1.8-1.63,3.27-3.63,3.27h-21.06v-2.19c0-3.96-3.29-7.18-7.34-7.18h-27.27
	c-4.05,0-7.34,3.22-7.34,7.18v12.37c0,3.96,3.29,7.18,7.34,7.18h27.27c4.05,0,7.34-3.22,7.34-7.18v-2.19h21.06
	c6.41,0,11.63-5.06,11.63-11.27v-20.6c13.55-3.54,21.91-15.92,21.91-33.53C193.48,80.34,185.4,68.1,171.29,64.55z M35.87,71.55h5.22
	v53.13h-5.24c-0.19-0.01-0.35-0.01-0.51,0c-13.8-0.12-22.03-10.03-22.03-26.57c0-13.16,5.05-22.04,14.29-25.25
	c0.6-0.21,1.22-0.4,1.86-0.56c1.91-0.48,3.89-0.74,5.89-0.76c0.16,0.01,0.33,0.01,0.5,0C35.86,71.55,35.86,71.55,35.87,71.55z
	 M130.88,164.88h-25.95v-10.74h25.95v1.37v8V164.88z M171.57,123.27c-2.4,0.89-5.07,1.37-8,1.41c-0.04,0-0.08,0-0.11,0
	c-0.17-0.01-0.34-0.01-0.52,0h-5.22V71.55h5.24c0,0,0,0,0.01,0c0.19,0.01,0.34,0.01,0.5,0c1.99,0.02,3.97,0.27,5.89,0.76
	c0.64,0.16,1.26,0.35,1.86,0.56c9.23,3.21,14.29,12.09,14.29,25.25C185.48,111.09,180.42,119.98,171.57,123.27z"/>
<path fill="#E0324C" stroke="#333333" stroke-width="7" stroke-miterlimit="10" d="M98.07,117.67c0.44,0.12,0.69,0.13,0.99,0.12h0
	c0.81,0,1.44-0.24,1.99-0.49c1.06-0.48,3.87-1.88,5.49-2.76c3.39-1.82,6.49-3.85,9.21-6.03c9.45-7.54,14.51-17.02,13.89-26.01
	c-0.41-5.94-3.36-10.96-8.09-13.77c-2.87-1.71-5.54-2.12-7.53-2.29c-4.38-0.4-8.64,1.16-12.36,4.41c-0.78,0.68-1.49,1.36-2.14,2.03
	c-3.29-3.81-8.19-6.79-13.4-6.79c-0.31,0-0.62,0.01-0.94,0.03c-2.02,0.14-4.7,0.51-7.58,2.14c-4.8,2.71-7.86,7.67-8.4,13.62
	c-0.82,8.96,4.02,18.54,13.28,26.27c2.66,2.23,5.71,4.32,9.07,6.23c3.18,1.8,4.86,2.65,5.85,3.05
	C97.62,117.53,97.84,117.61,98.07,117.67z"/>
</svg>
