<?xml version="1.0" encoding="utf-8"?>
<!-- Generator: Adobe Illustrator 26.3.1, SVG Export Plug-In . SVG Version: 6.00 Build 0)  -->
<svg version="1.1" id="레이어_2" xmlns="http://www.w3.org/2000/svg" xmlns:xlink="http://www.w3.org/1999/xlink" x="0px"
	 y="0px" viewBox="0 0 297.64 255.12" enable-background="new 0 0 297.64 255.12" xml:space="preserve">
<g>
	<path fill="#333333" d="M250.97,88.63c-0.77-0.19-1.55-0.36-2.33-0.51C238,44.87,197.3,12.56,148.82,12.56
		c-48.48,0-89.18,32.31-99.82,75.56c-0.78,0.15-1.56,0.32-2.34,0.51c-20.04,5.05-31.53,22.44-31.53,47.69
		c0,29.84,16.89,49.12,43.03,49.12c0.05,0,0.11,0,0.16,0h8.45c5.82,0,10.56-4.63,10.56-10.33V97.54c0-5.7-4.74-10.34-10.56-10.34
		h-5.77c10.75-36.46,46.03-63.28,87.8-63.28c41.78,0,77.06,26.82,87.81,63.28h-5.76c-5.82,0-10.56,4.64-10.56,10.34v77.57
		c0,5.69,4.74,10.33,10.56,10.33h8.45c0.05,0,0.11,0,0.16,0c0.17,0,0.34-0.01,0.52-0.01v27.81c0,2.56-2.31,4.65-5.16,4.65h-29.93
		v-3.11c0-5.63-4.68-10.2-10.43-10.2h-38.75c-5.75,0-10.43,4.58-10.43,10.2v17.58c0,5.63,4.68,10.21,10.43,10.21h38.75
		c5.75,0,10.43-4.58,10.43-10.21v-3.11h29.93c9.11,0,16.53-7.18,16.53-16.01v-29.27c19.25-5.03,31.14-22.62,31.14-47.65
		C282.5,111.06,271.01,93.68,250.97,88.63z M58.55,98.58h7.42v75.5h-7.44c-0.27-0.02-0.5-0.02-0.72,0
		C38.2,173.9,26.5,159.82,26.5,136.32c0-18.7,7.18-31.32,20.3-35.88c0.86-0.3,1.73-0.56,2.64-0.79c2.72-0.68,5.53-1.05,8.37-1.07
		c0.23,0.02,0.46,0.01,0.7,0C58.53,98.58,58.54,98.58,58.55,98.58z M193.55,231.19h-36.87v-15.26h36.87v1.95v11.37V231.19z
		 M251.36,172.07c-3.41,1.27-7.21,1.95-11.37,2c-0.05,0-0.11,0-0.16,0.01c-0.24-0.02-0.48-0.01-0.74,0h-7.42v-75.5h7.44
		c0,0,0.01,0,0.01,0c0.26,0.01,0.49,0.02,0.71,0c2.83,0.03,5.65,0.39,8.36,1.07c0.91,0.23,1.79,0.49,2.64,0.79
		c13.12,4.56,20.3,17.18,20.3,35.88C271.14,154.76,263.94,167.39,251.36,172.07z"/>
	<path fill="#E0324C" stroke="#333333" stroke-width="7" stroke-miterlimit="10" d="M146.93,164.11c0.63,0.18,0.99,0.18,1.4,0.18h0
		c1.15,0,2.05-0.34,2.83-0.69c1.51-0.68,5.49-2.67,7.81-3.92c4.82-2.59,9.22-5.47,13.09-8.56c13.42-10.72,20.62-24.19,19.74-36.96
		c-0.58-8.44-4.77-15.57-11.49-19.56c-4.08-2.42-7.87-3.02-10.7-3.26c-6.22-0.57-12.27,1.65-17.57,6.27
		c-1.11,0.97-2.12,1.93-3.04,2.89c-4.68-5.42-11.63-9.64-19.04-9.64c-0.44,0-0.89,0.02-1.33,0.05c-2.87,0.2-6.68,0.72-10.77,3.03
		c-6.82,3.85-11.17,10.9-11.94,19.35c-1.16,12.74,5.72,26.34,18.87,37.33c3.78,3.16,8.11,6.14,12.89,8.85
		c4.52,2.56,6.9,3.77,8.31,4.34C146.29,163.91,146.6,164.03,146.93,164.11z"/>
</g>
</svg>
