<?xml version="1.0" encoding="utf-8"?>
<!-- Generator: Adobe Illustrator 26.3.1, SVG Export Plug-In . SVG Version: 6.00 Build 0)  -->
<svg version="1.1" id="레이어_1" xmlns="http://www.w3.org/2000/svg" xmlns:xlink="http://www.w3.org/1999/xlink" x="0px"
	 y="0px" viewBox="0 0 60 60" enable-background="new 0 0 60 60" xml:space="preserve">
<g>
	<path fill="none" stroke="#040000" stroke-width="3" stroke-linecap="round" stroke-linejoin="round" d="M17.75,18.02h30.3
		c1.65,0,2.67,1.31,2.26,2.91l-3.35,13.26c-0.4,1.6-2.09,2.91-3.74,2.91H20.96"/>
</g>
<g>
	<path fill="none" stroke="#008AD0" stroke-width="3" stroke-linecap="round" stroke-linejoin="round" d="M46.54,44.5"/>
</g>
<g>
	
		<line fill="none" stroke="#040000" stroke-width="3" stroke-linecap="round" stroke-linejoin="round" x1="25.94" y1="48.13" x2="40.69" y2="48.13"/>
</g>
<g>
	<path fill="none" stroke="#040000" stroke-width="3" stroke-linecap="round" stroke-linejoin="round" d="M8.87,5.93h3.72
		c1.65,0,3.19,1.34,3.41,2.97l4.93,35.48"/>
</g>
<path fill="none" stroke="#040000" stroke-width="3" stroke-linecap="round" stroke-linejoin="round" d="M25.94,48.13
	c-0.48-2.16-2.41-3.77-4.71-3.77c-0.1,0-0.2,0.01-0.29,0.01c-2.53,0.15-4.54,2.25-4.54,4.82c0,2.67,2.16,4.83,4.83,4.83
	c2.67,0,4.83-2.17,4.83-4.83C26.07,48.83,26.02,48.47,25.94,48.13z"/>
<path fill="none" stroke="#040000" stroke-width="3" stroke-linecap="round" stroke-linejoin="round" d="M46.54,44.5
	c-0.37-0.09-0.74-0.14-1.14-0.14c-2.3,0-4.23,1.61-4.71,3.77c-0.08,0.34-0.12,0.7-0.12,1.07c0,2.67,2.17,4.83,4.83,4.83
	s4.83-2.17,4.83-4.83C50.24,46.92,48.66,45.01,46.54,44.5z"/>
</svg>
