<?xml version="1.0" encoding="utf-8"?>
<!-- Generator: Adobe Illustrator 26.3.1, SVG Export Plug-In . SVG Version: 6.00 Build 0)  -->
<svg version="1.1" id="레이어_1" xmlns="http://www.w3.org/2000/svg" xmlns:xlink="http://www.w3.org/1999/xlink" x="0px"
	 y="0px" viewBox="0 0 60 60" enable-background="new 0 0 60 60" xml:space="preserve">
<g>
	<path fill="none" stroke="#040000" stroke-width="3" stroke-linecap="round" stroke-linejoin="round" d="M42.24,24.86v-8.86
		c0-6.76-5.48-12.24-12.24-12.24c-6.76,0-12.24,5.48-12.24,12.24v8.86"/>
	<path fill="none" stroke="#040000" stroke-width="3" stroke-linecap="round" stroke-linejoin="round" d="M23.81,24.86v-8.86
		c0-3.41,2.77-6.19,6.19-6.19c3.41,0,6.19,2.78,6.19,6.19v8.86"/>
	<path fill="none" stroke="#040000" stroke-width="3" stroke-linecap="round" stroke-linejoin="round" d="M49.26,52.32
		c0,2.17-1.76,3.93-3.93,3.93H14.67c-2.17,0-3.93-1.76-3.93-3.93V29.59c0-2.17,1.76-3.93,3.93-3.93h30.66
		c2.17,0,3.93,1.76,3.93,3.93V52.32z"/>
	<path fill="none" stroke="#040000" stroke-width="3" stroke-linecap="round" stroke-linejoin="round" d="M14.9,29.82"/>
	<path fill="none" stroke="#040000" stroke-width="3" stroke-linecap="round" stroke-linejoin="round" d="M14.9,52.09"/>
	
		<line fill="none" stroke="#040000" stroke-width="3" stroke-linecap="round" stroke-linejoin="round" x1="30" y1="37.5" x2="30" y2="42.67"/>
</g>
</svg>
