<?xml version="1.0" encoding="utf-8"?>
<!-- Generator: Adobe Illustrator 26.3.1, SVG Export Plug-In . SVG Version: 6.00 Build 0)  -->
<svg version="1.1" id="레이어_1" xmlns="http://www.w3.org/2000/svg" xmlns:xlink="http://www.w3.org/1999/xlink" x="0px"
	 y="0px" viewBox="0 0 60 60" enable-background="new 0 0 60 60" xml:space="preserve">
<g>
	<path fill="none" stroke="#040000" stroke-width="3" stroke-linecap="round" stroke-linejoin="round" d="M23.81,24.86l0-8.65
		c0-3.14,2.26-5.95,5.38-6.35c3.77-0.48,7,2.46,7,6.14v2.44c0,1.26,0.51,2.5,1.5,3.28c0.81,0.64,1.89,0.97,3.08,0
		c0.98-0.8,1.48-2.04,1.48-3.31v-2c0-6.74-5.27-12.52-12.01-12.65c-6.87-0.12-12.47,5.4-12.47,12.24v8.86"/>
	<path fill="none" stroke="#040000" stroke-width="3" stroke-linecap="round" stroke-linejoin="round" d="M49.26,52.32
		c0,2.17-1.76,3.93-3.93,3.93H14.67c-2.17,0-3.93-1.76-3.93-3.93V29.59c0-2.17,1.76-3.93,3.93-3.93h30.66
		c2.17,0,3.93,1.76,3.93,3.93V52.32z"/>
	<path fill="none" stroke="#040000" stroke-width="3" stroke-linecap="round" stroke-linejoin="round" d="M14.9,29.82"/>
	<path fill="none" stroke="#040000" stroke-width="3" stroke-linecap="round" stroke-linejoin="round" d="M14.9,52.09"/>
	
		<line fill="none" stroke="#040000" stroke-width="3" stroke-linecap="round" stroke-linejoin="round" x1="30" y1="37.5" x2="30" y2="42.67"/>
</g>
</svg>
